<svg class="icon" viewBox="0 0 1024 1024" xmlns="http://www.w3.org/2000/svg" width="200" height="200"><defs><style/></defs><path d="M774.227 409.926s-6.308-6.378-10.85-6.378H694.4v134.964h150.146c0-6.75-5.703-15.526-10.959-22.937l-59.36-105.649zm0 0"/><path d="M510.928 2.055C228.76 2.055.02 230.793.02 512.96c0 282.162 228.74 510.906 510.907 510.906 282.163 0 510.906-228.744 510.906-510.906 0-282.168-228.743-510.906-510.906-510.906zm-168.976 779.39c-38.938 0-70.487-30.205-70.487-67.482 0-37.272 31.55-67.481 70.487-67.481 38.936 0 70.493 30.209 70.493 67.48 0 37.278-31.556 67.483-70.493 67.483zm394.744 0c-38.936 0-70.493-30.205-70.493-67.482 0-37.272 31.556-67.481 70.493-67.481 38.935 0 70.487 30.209 70.487 67.48 0 37.278-31.552 67.483-70.487 67.483zm126.882-80.977h-28.032c-6.91-46.504-48.383-82.508-98.85-82.508-50.444 0-91.917 35.986-98.852 82.479l-197.042.03c-6.91-46.505-48.377-82.509-98.85-82.509-50.468 0-91.935 36.004-98.851 82.508h-56.224c-15.53 0-28.198-12.124-28.198-26.993V268.58c0-14.865 12.666-26.994 28.198-26.994h451.134c15.53 0 28.193 12.13 28.193 26.994v80.981h98.69c20.703 0 29.407 12.125 42.289 26.994l63.003 107.446s21.585 28.941 21.59 54.512v134.963c-.005 14.868-12.668 26.992-28.198 26.992zm0 0"/><path d="M502.593 294.218l-70.8 66.85-70.796-66.85h-55.305l96.326 91.162h-90.245v17.317h96.623v57.125h-96.623v17.018h96.623v104.524h46.798V476.839h96.624v-17.018h-96.624v-57.125h96.624v-17.317h-90.246l96.326-91.162h-55.305zm0 0"/></svg>