<svg class="icon" viewBox="0 0 1024 1024" xmlns="http://www.w3.org/2000/svg" width="200" height="200"><defs><style/></defs><path d="M378.795 738.73a357.973 357.973 0 0 0 66.474 208.342H75.776A75.947 75.947 0 0 1 0 871.296V75.776A75.947 75.947 0 0 1 75.733 0h681.899c41.813.085 75.69 33.963 75.733 75.776v315.776a359.936 359.936 0 0 0-454.613 347.179zm-189.44-587.22a37.888 37.888 0 0 0 0 75.775h454.57a37.888 37.888 0 1 0 0-75.776h-454.57zm0 227.285a37.888 37.888 0 1 0 0 75.776h151.552a37.888 37.888 0 1 0 0-75.776H189.355zm75.776 303.061a37.888 37.888 0 1 0 0-75.733h-75.776a37.888 37.888 0 1 0 0 75.733h75.776zm473.386-227.413a284.203 284.203 0 0 1 284.246 284.288A284.245 284.245 0 1 1 738.56 454.443zm162.518 233.77a27.52 27.52 0 0 0 0-38.826 27.52 27.52 0 0 0-38.827 0l-145.28 145.28-82.901-82.859a27.52 27.52 0 0 0-38.827 0 27.52 27.52 0 0 0 0 38.827l102.4 102.4a27.563 27.563 0 0 0 40.917-2.304l162.518-162.518z"/></svg>