<svg class="icon" viewBox="0 0 1113 1024" xmlns="http://www.w3.org/2000/svg" width="217.383" height="200"><defs><style/></defs><path d="M1059.84 921.6h-52.09V580.252c0-5.788-.535-11.442-1.247-17.052h1.202v-17.052c0-56.542-46.659-102.4-104.225-102.4H729.71V102.4C729.711 45.857 683.053 0 625.486 0h-416.99C150.928 0 104.18 45.857 104.18 102.4v819.2H52.09A51.645 51.645 0 0 0 0 972.8c0 28.271 23.33 51.2 52.09 51.2h1007.75c18.61 0 35.84-9.795 45.145-25.6 9.305-15.85 9.305-35.35 0-51.2a52.313 52.313 0 0 0-45.145-25.6zM382.22 733.852c0 18.877-15.583 34.148-34.728 34.148h-34.727a34.46 34.46 0 0 1-34.771-34.148v-34.104a33.837 33.837 0 0 1 10.195-24.13 35.083 35.083 0 0 1 24.532-10.018h34.727c9.26 0 18.075 3.562 24.62 10.017a33.837 33.837 0 0 1 10.151 24.131v34.104zm0-221.852c0 18.833-15.583 34.148-34.728 34.148h-34.727A34.46 34.46 0 0 1 277.994 512v-34.148c0-18.833 15.582-34.104 34.727-34.104h34.727c9.26 0 18.075 3.562 24.62 9.973a33.837 33.837 0 0 1 10.151 24.13V512zm0-221.852c0 18.833-15.583 34.104-34.728 34.104h-34.727a34.46 34.46 0 0 1-34.771-34.104V256c0-18.833 15.582-34.148 34.727-34.148h34.727c9.26 0 18.075 3.606 24.62 10.017A33.837 33.837 0 0 1 382.22 256v34.148zM573.35 733.852a33.837 33.837 0 0 1-10.196 24.13A35.083 35.083 0 0 1 538.624 768h-34.727a34.46 34.46 0 0 1-34.771-34.148v-34.104a33.837 33.837 0 0 1 10.15-24.13 35.083 35.083 0 0 1 24.577-10.018h34.726c9.261 0 18.076 3.562 24.576 10.017a33.837 33.837 0 0 1 10.196 24.131v34.104zm0-221.852a33.837 33.837 0 0 1-10.196 24.13 35.083 35.083 0 0 1-24.531 10.018h-34.727A34.46 34.46 0 0 1 469.126 512v-34.148c0-18.833 15.538-34.104 34.727-34.104h34.726c19.234 0 34.772 15.271 34.772 34.104V512zm0-221.852a33.837 33.837 0 0 1-10.196 24.131 35.083 35.083 0 0 1-24.531 9.973h-34.727a34.46 34.46 0 0 1-34.771-34.104V256c0-18.833 15.538-34.148 34.727-34.148h34.726c9.261 0 18.076 3.606 24.576 10.017A33.837 33.837 0 0 1 573.351 256v34.148zM886.071 819.2c0 18.833-15.537 34.148-34.726 34.148h-34.727a35.083 35.083 0 0 1-24.576-10.017 33.837 33.837 0 0 1-10.196-24.131v-34.148a33.837 33.837 0 0 1 10.196-24.131 35.083 35.083 0 0 1 24.531-9.973h34.772c9.216 0 18.031 3.562 24.576 9.973a33.837 33.837 0 0 1 10.15 24.13V819.2zm0-170.652c0 18.833-15.537 34.104-34.726 34.104h-34.727a35.083 35.083 0 0 1-24.576-9.973 33.837 33.837 0 0 1-10.196-24.13V614.4a33.837 33.837 0 0 1 10.196-24.13 35.083 35.083 0 0 1 24.531-10.018h34.772a35.106 35.106 0 0 1 24.576 10.017 33.837 33.837 0 0 1 10.15 24.131v34.148z"/></svg>