<?xml version="1.0" standalone="no"?><!DOCTYPE svg PUBLIC "-//W3C//DTD SVG 1.1//EN" "http://www.w3.org/Graphics/SVG/1.1/DTD/svg11.dtd"><svg t="1587028986731" class="icon" viewBox="0 0 1024 1024" version="1.1" xmlns="http://www.w3.org/2000/svg" p-id="1662" xmlns:xlink="http://www.w3.org/1999/xlink" width="200" height="200"><defs><style type="text/css"></style></defs><path d="M511.996418 1.450025c-281.929044 0-510.525416 228.567719-510.525416 510.510066s228.596372 510.539742 510.525416 510.539742c281.985326 0 510.523369-228.597395 510.523369-510.539742S793.980721 1.450025 511.996418 1.450025zM293.199227 722.723306c0-94.27106 59.926858-172.031075 137.331785-183.341678-56.935734-9.31618-100.381222-58.730613-100.381222-118.28601 0-66.208934 53.673433-119.882368 119.868041-119.882368 66.208934 0 119.881344 53.673433 119.881344 119.882368 0 59.556421-43.458791 108.970854-100.394525 118.28601 77.41823 11.310603 137.345088 89.070618 137.345088 183.341678L293.199227 722.723306zM710.607872 640.203894l-90.724281 0c-4.699022-12.535501-10.354835-24.457018-16.878412-35.625382L710.607872 604.578512c11.096732 0 20.184715 8.019651 20.184715 17.819854C730.791563 632.184243 721.704604 640.203894 710.607872 640.203894zM730.791563 556.075845c0 11.110035-9.087982 20.198018-20.184715 20.184715L583.332117 576.260559c-12.122085-14.742772-25.982768-27.506471-41.194214-37.790698 30.952966-26.238594 50.609655-65.397453 50.609655-109.156072 0-10.127661-1.052982-20.013823-3.061732-29.557176L710.607872 399.756613c11.096732 0 20.184715 9.087982 20.184715 20.198018L730.792587 556.075845z" p-id="1663"></path></svg>