<svg class="icon" viewBox="0 0 1024 1024" xmlns="http://www.w3.org/2000/svg" width="200" height="200"><defs><style/></defs><path d="M134.4 32h256c57.6 0 102.4 44.8 102.4 102.4v256c0 57.6-44.8 102.4-102.4 102.4h-256C76.8 486.4 32 441.6 32 384V128c0-51.2 44.8-96 102.4-96zM640 32h256c57.6 0 102.4 44.8 102.4 102.4v256c0 57.6-44.8 102.4-102.4 102.4H640c-57.6-6.4-102.4-51.2-102.4-108.8V128c0-51.2 44.8-96 102.4-96m0 352h256V128H640v256zm0 153.6h256c57.6 0 102.4 44.8 102.4 102.4v256c0 57.6-44.8 102.4-102.4 102.4H640c-57.6 0-102.4-44.8-102.4-102.4V640c0-57.6 44.8-102.4 102.4-102.4m0 352h256v-256H640v256zm-505.6-352h256c57.6 0 102.4 44.8 102.4 102.4v256c0 57.6-44.8 102.4-102.4 102.4h-256C76.8 998.4 32 953.6 32 896V640c0-57.6 44.8-102.4 102.4-102.4m0 352h256v-256h-256v256z"/></svg>