<svg class="icon" viewBox="0 0 1024 1024" xmlns="http://www.w3.org/2000/svg" width="200" height="200"><defs><style/></defs><path d="M767.595 416.763L631.46 252.43c5.389-13.8 8.35-28.816 8.35-44.525 0-67.63-54.824-122.456-122.456-122.456-67.629 0-122.454 54.826-122.454 122.456 0 14.206 2.427 27.842 6.875 40.527l-127.05 168.33H54.255v486.56h919.392v-486.56H767.595zm-332.65-118.284c21.754 19.806 50.673 31.882 82.41 31.882 30.718 0 58.791-11.313 80.29-29.995l96.422 116.396h-348.4l89.278-118.283zm-130.633 481.98L269.933 726.7c-6.867-10.751-13.154-18.064-18.861-21.939-5.708-3.875-12.53-5.814-20.466-5.814h-19.263v81.51H184.59v-193.65h63.138c20.153 0 35.937 4.542 47.353 13.626 11.414 9.086 17.122 21.796 17.122 38.13 0 26.839-15.34 44.257-46.016 52.257v.625c5.706 2.25 10.635 5.46 14.782 9.625 4.146 4.17 9.518 11.296 16.119 21.38l38.792 58.007h-31.568zm170.554 0H363.438V586.807h106.746v22.253h-79.993v62.008H464.3v22.129h-74.108v65.133h84.676v22.127zm208.411 0h-31.702L547.37 629.811c-2.943-4.249-5.308-8.456-7.09-12.625h-.803c.713 4.334 1.07 13.376 1.07 27.128v136.143h-26.485v-193.65h33.576l101.396 148.019c4.816 7.001 7.67 11.46 8.561 13.377h.536c-.893-5.5-1.339-14.918-1.339-28.253V586.808h26.486v193.65zM861.992 609.06h-59.795v171.397h-26.888V609.061h-59.526v-22.253h146.209v22.253zm-577.879 31.754c0-10.084-3.477-17.96-10.433-23.628-6.956-5.666-17.078-8.503-30.365-8.503h-31.971v68.386h31.569c12.217 0 22.14-3.334 29.764-10.001s11.436-15.42 11.436-26.254z"/></svg>